{
    "asset" : {
        "generator" : "Khronos Blender glTF 2.0 I/O",
        "version" : "2.0"
    },
    "scene" : 0,
    "scenes" : [
        {
            "name" : "Scene",
            "nodes" : [
                18
            ]
        }
    ],
    "nodes" : [
        {
            "name" : "grub.tail",
            "rotation" : [
                -0.052217163145542145,
                -0.7328174710273743,
                0.04383818805217743,
                0.677000880241394
            ],
            "scale" : [
                0.9999999403953552,
                1,
                0.9999999403953552
            ],
            "translation" : [
                -1.1641532182693481e-10,
                0.3000931739807129,
                2.852175384759903e-09
            ]
        },
        {
            "children" : [
                0
            ],
            "name" : "grub.end",
            "rotation" : [
                -0.7807552218437195,
                0.03136073052883148,
                -0.021337686106562614,
                0.6236847043037415
            ],
            "scale" : [
                1,
                0.9999998807907104,
                0.9999999403953552
            ],
            "translation" : [
                -0.0030303271487355232,
                -0.0024902946315705776,
                0.0021067005582153797
            ]
        },
        {
            "name" : "grub.face",
            "rotation" : [
                -0.0018269646679982543,
                -0.0006346969166770577,
                -0.04980910196900368,
                0.9987568855285645
            ],
            "scale" : [
                0.9999998807907104,
                1,
                0.9999999403953552
            ],
            "translation" : [
                1.4096258382778615e-08,
                0.2533043324947357,
                1.0477378964424133e-09
            ]
        },
        {
            "name" : "grub.headlegR",
            "rotation" : [
                0.2505958080291748,
                -0.003749924013391137,
                0.020983215421438217,
                0.9678571224212646
            ],
            "scale" : [
                1,
                1.0000001192092896,
                1.0000001192092896
            ],
            "translation" : [
                1.4901161193847656e-08,
                0.173386350274086,
                -4.190951585769653e-08
            ]
        },
        {
            "children" : [
                3
            ],
            "name" : "grub.headlegR.b",
            "rotation" : [
                0.7644954919815063,
                0.09276910126209259,
                -0.3968257009983063,
                0.49946969747543335
            ],
            "scale" : [
                0.9999999403953552,
                1,
                1
            ],
            "translation" : [
                1.4096258382778615e-08,
                0.2533043324947357,
                1.0477378964424133e-09
            ]
        },
        {
            "name" : "grub.headlegL",
            "rotation" : [
                -0.24996574223041534,
                9.224270911545318e-07,
                2.789356017274258e-07,
                0.9682546854019165
            ],
            "scale" : [
                0.9999999403953552,
                0.9999998211860657,
                0.9999998211860657
            ],
            "translation" : [
                -3.725290298461914e-09,
                0.1837628036737442,
                1.1292286217212677e-08
            ]
        },
        {
            "children" : [
                5
            ],
            "name" : "grub.headlegL.b",
            "rotation" : [
                0.25484699010849,
                0.5741856694221497,
                -0.7614206671714783,
                0.1600075215101242
            ],
            "scale" : [
                0.9999999403953552,
                0.9999999403953552,
                0.9999999403953552
            ],
            "translation" : [
                1.4096258382778615e-08,
                0.2533043324947357,
                1.0477378964424133e-09
            ]
        },
        {
            "children" : [
                2,
                4,
                6
            ],
            "name" : "grub.head",
            "rotation" : [
                -0.01397907268255949,
                -0.003749353811144829,
                -0.04900414124131203,
                0.9986937046051025
            ],
            "scale" : [
                1,
                1.000000238418579,
                0.9999999403953552
            ],
            "translation" : [
                -3.356035449542105e-09,
                0.30407604575157166,
                1.0550138540565968e-10
            ]
        },
        {
            "name" : "grub.bodylegR",
            "rotation" : [
                -0.249966561794281,
                -1.9802845940830593e-07,
                -3.8650668443551695e-08,
                0.9682544469833374
            ],
            "scale" : [
                1,
                1,
                0.9999999403953552
            ],
            "translation" : [
                3.725290298461914e-09,
                0.1586918830871582,
                1.210719347000122e-08
            ]
        },
        {
            "children" : [
                8
            ],
            "name" : "grub.bodylegR.b",
            "rotation" : [
                0.757958710193634,
                0.05629483237862587,
                -0.36799612641334534,
                0.5356384515762329
            ],
            "scale" : [
                1,
                1.0000001192092896,
                1.0000001192092896
            ],
            "translation" : [
                -3.356035449542105e-09,
                0.30407604575157166,
                1.0550138540565968e-10
            ]
        },
        {
            "name" : "grub.bodylegL",
            "rotation" : [
                0.23506180942058563,
                4.1347615820086503e-07,
                -1.0741224087951196e-07,
                0.9719804525375366
            ],
            "scale" : [
                0.9999999403953552,
                0.9999999403953552,
                0.9999999403953552
            ],
            "translation" : [
                4.6566128730773926e-09,
                0.17003215849399567,
                6.51925802230835e-09
            ]
        },
        {
            "children" : [
                10
            ],
            "name" : "grub.bodylegL.b",
            "rotation" : [
                0.22612470388412476,
                0.574952244758606,
                -0.7750573754310608,
                0.13260354101657867
            ],
            "scale" : [
                1.0000001192092896,
                1.000000238418579,
                1
            ],
            "translation" : [
                -3.356035449542105e-09,
                0.30407604575157166,
                1.0550138540565968e-10
            ]
        },
        {
            "children" : [
                7,
                9,
                11
            ],
            "name" : "grub.body",
            "rotation" : [
                0.4609704911708832,
                -0.5362378358840942,
                -0.4570018947124481,
                0.5395410656929016
            ],
            "scale" : [
                1,
                1.000000238418579,
                1.000008225440979
            ],
            "translation" : [
                -0.0030303271487355232,
                -0.0024902946315705776,
                0.0021067005582153797
            ]
        },
        {
            "name" : "grub.taillegR",
            "rotation" : [
                0.24996648728847504,
                4.642930662157596e-08,
                6.986120570928733e-09,
                0.9682545065879822
            ],
            "scale" : [
                1,
                0.9999999403953552,
                0.9999999403953552
            ],
            "translation" : [
                -1.0128132998943329e-08,
                0.13127070665359497,
                4.656612873077393e-10
            ]
        },
        {
            "children" : [
                13
            ],
            "name" : "grub.taillegR.b",
            "rotation" : [
                -0.8334200382232666,
                0.5390647053718567,
                0.047373805195093155,
                0.11214317381381989
            ],
            "scale" : [
                1,
                1,
                1.0000001192092896
            ],
            "translation" : [
                -0.0030303271487355232,
                -0.0024902946315705776,
                0.0021067005582153797
            ]
        },
        {
            "name" : "grub.taillegL",
            "rotation" : [
                -0.24996650218963623,
                -5.592870877535461e-08,
                4.009054421771907e-08,
                0.968254566192627
            ],
            "scale" : [
                1,
                1.0000001192092896,
                1.0000001192092896
            ],
            "translation" : [
                1.57160684466362e-09,
                0.15514181554317474,
                -2.3283064365386963e-10
            ]
        },
        {
            "children" : [
                15
            ],
            "name" : "grub.taillegL.b",
            "rotation" : [
                0.8043221831321716,
                0.5927922129631042,
                -0.040728382766246796,
                0.0021124123595654964
            ],
            "translation" : [
                -0.0030303271487355232,
                -0.0024902946315705776,
                0.0021067005582153797
            ]
        },
        {
            "mesh" : 0,
            "name" : "grub",
            "rotation" : [
                0.7179951071739197,
                -0.10182494670152664,
                -0.011086352169513702,
                0.6884706616401672
            ],
            "scale" : [
                0.9763448238372803,
                0.9763442277908325,
                0.9648680090904236
            ],
            "skin" : 0,
            "translation" : [
                -0.27527332305908203,
                -0.015736639499664307,
                0.06202607601881027
            ]
        },
        {
            "children" : [
                17,
                1,
                12,
                14,
                16
            ],
            "name" : "Armature",
            "translation" : [
                -0.018340840935707092,
                0.2762868404388428,
                -0.17090654373168945
            ]
        }
    ],
    "animations" : [
        {
            "channels" : [
                {
                    "sampler" : 0,
                    "target" : {
                        "node" : 2,
                        "path" : "rotation"
                    }
                },
                {
                    "sampler" : 1,
                    "target" : {
                        "node" : 0,
                        "path" : "rotation"
                    }
                },
                {
                    "sampler" : 2,
                    "target" : {
                        "node" : 7,
                        "path" : "rotation"
                    }
                },
                {
                    "sampler" : 3,
                    "target" : {
                        "node" : 1,
                        "path" : "rotation"
                    }
                },
                {
                    "sampler" : 4,
                    "target" : {
                        "node" : 5,
                        "path" : "rotation"
                    }
                },
                {
                    "sampler" : 5,
                    "target" : {
                        "node" : 10,
                        "path" : "rotation"
                    }
                },
                {
                    "sampler" : 6,
                    "target" : {
                        "node" : 15,
                        "path" : "rotation"
                    }
                },
                {
                    "sampler" : 7,
                    "target" : {
                        "node" : 13,
                        "path" : "rotation"
                    }
                },
                {
                    "sampler" : 8,
                    "target" : {
                        "node" : 8,
                        "path" : "rotation"
                    }
                },
                {
                    "sampler" : 9,
                    "target" : {
                        "node" : 3,
                        "path" : "rotation"
                    }
                }
            ],
            "name" : "ArmatureAction",
            "samplers" : [
                {
                    "input" : 7,
                    "interpolation" : "CUBICSPLINE",
                    "output" : 8
                },
                {
                    "input" : 7,
                    "interpolation" : "CUBICSPLINE",
                    "output" : 9
                },
                {
                    "input" : 7,
                    "interpolation" : "CUBICSPLINE",
                    "output" : 10
                },
                {
                    "input" : 7,
                    "interpolation" : "CUBICSPLINE",
                    "output" : 11
                },
                {
                    "input" : 12,
                    "interpolation" : "CUBICSPLINE",
                    "output" : 13
                },
                {
                    "input" : 14,
                    "interpolation" : "CUBICSPLINE",
                    "output" : 15
                },
                {
                    "input" : 16,
                    "interpolation" : "CUBICSPLINE",
                    "output" : 17
                },
                {
                    "input" : 16,
                    "interpolation" : "CUBICSPLINE",
                    "output" : 18
                },
                {
                    "input" : 16,
                    "interpolation" : "CUBICSPLINE",
                    "output" : 19
                },
                {
                    "input" : 16,
                    "interpolation" : "CUBICSPLINE",
                    "output" : 20
                }
            ]
        },
        {
            "channels" : [
                {
                    "sampler" : 0,
                    "target" : {
                        "node" : 17,
                        "path" : "scale"
                    }
                },
                {
                    "sampler" : 1,
                    "target" : {
                        "node" : 17,
                        "path" : "translation"
                    }
                }
            ],
            "name" : "GrubWalk",
            "samplers" : [
                {
                    "input" : 7,
                    "interpolation" : "CUBICSPLINE",
                    "output" : 21
                },
                {
                    "input" : 7,
                    "interpolation" : "CUBICSPLINE",
                    "output" : 22
                }
            ]
        }
    ],
    "materials" : [
        {
            "name" : "Material.001",
            "pbrMetallicRoughness" : {
                "baseColorTexture" : {
                    "index" : 0,
                    "texCoord" : 0
                },
                "metallicFactor" : 0,
                "roughnessFactor" : 0.5
            }
        }
    ],
    "meshes" : [
        {
            "name" : "Circle.000",
            "primitives" : [
                {
                    "attributes" : {
                        "POSITION" : 0,
                        "NORMAL" : 1,
                        "TEXCOORD_0" : 2,
                        "JOINTS_0" : 3,
                        "WEIGHTS_0" : 4
                    },
                    "indices" : 5,
                    "material" : 0
                }
            ]
        }
    ],
    "textures" : [
        {
            "source" : 0
        }
    ],
    "images" : [
        {
            "bufferView" : 6,
            "mimeType" : "image/png",
            "name" : "grubSkin.png"
        }
    ],
    "skins" : [
        {
            "inverseBindMatrices" : 6,
            "joints" : [
                1,
                0,
                12,
                7,
                2,
                4,
                3,
                6,
                5,
                9,
                8,
                11,
                10,
                14,
                13,
                16,
                15
            ],
            "name" : "Armature"
        }
    ],
    "accessors" : [
        {
            "bufferView" : 0,
            "componentType" : 5126,
            "count" : 5318,
            "max" : [
                0.6571688055992126,
                0.7233384847640991,
                0.16243115067481995
            ],
            "min" : [
                -0.008741796016693115,
                -0.7053565382957458,
                -0.43567001819610596
            ],
            "type" : "VEC3"
        },
        {
            "bufferView" : 1,
            "componentType" : 5126,
            "count" : 5318,
            "type" : "VEC3"
        },
        {
            "bufferView" : 2,
            "componentType" : 5126,
            "count" : 5318,
            "type" : "VEC2"
        },
        {
            "bufferView" : 3,
            "componentType" : 5123,
            "count" : 5318,
            "type" : "VEC4"
        },
        {
            "bufferView" : 4,
            "componentType" : 5126,
            "count" : 5318,
            "type" : "VEC4"
        },
        {
            "bufferView" : 5,
            "componentType" : 5123,
            "count" : 5574,
            "type" : "SCALAR"
        },
        {
            "bufferView" : 7,
            "componentType" : 5126,
            "count" : 17,
            "type" : "MAT4"
        },
        {
            "bufferView" : 8,
            "componentType" : 5126,
            "count" : 3,
            "max" : [
                2.0833333333333335
            ],
            "min" : [
                0.041666666666666664
            ],
            "type" : "SCALAR"
        },
        {
            "bufferView" : 9,
            "componentType" : 5126,
            "count" : 9,
            "type" : "VEC4"
        },
        {
            "bufferView" : 10,
            "componentType" : 5126,
            "count" : 9,
            "type" : "VEC4"
        },
        {
            "bufferView" : 11,
            "componentType" : 5126,
            "count" : 9,
            "type" : "VEC4"
        },
        {
            "bufferView" : 12,
            "componentType" : 5126,
            "count" : 9,
            "type" : "VEC4"
        },
        {
            "bufferView" : 13,
            "componentType" : 5126,
            "count" : 9,
            "max" : [
                2.0833333333333335
            ],
            "min" : [
                0.041666666666666664
            ],
            "type" : "SCALAR"
        },
        {
            "bufferView" : 14,
            "componentType" : 5126,
            "count" : 27,
            "type" : "VEC4"
        },
        {
            "bufferView" : 15,
            "componentType" : 5126,
            "count" : 9,
            "max" : [
                2.0833333333333335
            ],
            "min" : [
                0.041666666666666664
            ],
            "type" : "SCALAR"
        },
        {
            "bufferView" : 16,
            "componentType" : 5126,
            "count" : 27,
            "type" : "VEC4"
        },
        {
            "bufferView" : 17,
            "componentType" : 5126,
            "count" : 9,
            "max" : [
                2.0833333333333335
            ],
            "min" : [
                0.041666666666666664
            ],
            "type" : "SCALAR"
        },
        {
            "bufferView" : 18,
            "componentType" : 5126,
            "count" : 27,
            "type" : "VEC4"
        },
        {
            "bufferView" : 19,
            "componentType" : 5126,
            "count" : 27,
            "type" : "VEC4"
        },
        {
            "bufferView" : 20,
            "componentType" : 5126,
            "count" : 27,
            "type" : "VEC4"
        },
        {
            "bufferView" : 21,
            "componentType" : 5126,
            "count" : 27,
            "type" : "VEC4"
        },
        {
            "bufferView" : 22,
            "componentType" : 5126,
            "count" : 9,
            "type" : "VEC3"
        },
        {
            "bufferView" : 23,
            "componentType" : 5126,
            "count" : 9,
            "type" : "VEC3"
        }
    ],
    "bufferViews" : [
        {
            "buffer" : 0,
            "byteLength" : 63816,
            "byteOffset" : 0
        },
        {
            "buffer" : 0,
            "byteLength" : 63816,
            "byteOffset" : 63816
        },
        {
            "buffer" : 0,
            "byteLength" : 42544,
            "byteOffset" : 127632
        },
        {
            "buffer" : 0,
            "byteLength" : 42544,
            "byteOffset" : 170176
        },
        {
            "buffer" : 0,
            "byteLength" : 85088,
            "byteOffset" : 212720
        },
        {
            "buffer" : 0,
            "byteLength" : 11148,
            "byteOffset" : 297808
        },
        {
            "buffer" : 0,
            "byteLength" : 974365,
            "byteOffset" : 308956
        },
        {
            "buffer" : 0,
            "byteLength" : 1088,
            "byteOffset" : 1283324
        },
        {
            "buffer" : 0,
            "byteLength" : 12,
            "byteOffset" : 1284412
        },
        {
            "buffer" : 0,
            "byteLength" : 144,
            "byteOffset" : 1284424
        },
        {
            "buffer" : 0,
            "byteLength" : 144,
            "byteOffset" : 1284568
        },
        {
            "buffer" : 0,
            "byteLength" : 144,
            "byteOffset" : 1284712
        },
        {
            "buffer" : 0,
            "byteLength" : 144,
            "byteOffset" : 1284856
        },
        {
            "buffer" : 0,
            "byteLength" : 36,
            "byteOffset" : 1285000
        },
        {
            "buffer" : 0,
            "byteLength" : 432,
            "byteOffset" : 1285036
        },
        {
            "buffer" : 0,
            "byteLength" : 36,
            "byteOffset" : 1285468
        },
        {
            "buffer" : 0,
            "byteLength" : 432,
            "byteOffset" : 1285504
        },
        {
            "buffer" : 0,
            "byteLength" : 36,
            "byteOffset" : 1285936
        },
        {
            "buffer" : 0,
            "byteLength" : 432,
            "byteOffset" : 1285972
        },
        {
            "buffer" : 0,
            "byteLength" : 432,
            "byteOffset" : 1286404
        },
        {
            "buffer" : 0,
            "byteLength" : 432,
            "byteOffset" : 1286836
        },
        {
            "buffer" : 0,
            "byteLength" : 432,
            "byteOffset" : 1287268
        },
        {
            "buffer" : 0,
            "byteLength" : 108,
            "byteOffset" : 1287700
        },
        {
            "buffer" : 0,
            "byteLength" : 108,
            "byteOffset" : 1287808
        }
    ],
    "buffers" : [
        {
            "byteLength" : 1287916,
            "uri" : "data:application/octet-stream;base64,"
        }
    ]
}
